<?xml version="1.0" standalone="no"?>
<!DOCTYPE svg PUBLIC "-//W3C//DTD SVG 20010904//EN"
 "http://www.w3.org/TR/2001/REC-SVG-20010904/DTD/svg10.dtd">
<svg version="1.0" xmlns="http://www.w3.org/2000/svg"
 width="234.000000pt" height="192.000000pt" viewBox="0 0 234.000000 192.000000"
 preserveAspectRatio="xMidYMid meet">

<g transform="translate(0.000000,192.000000) scale(0.100000,-0.100000)"
fill="#000000" stroke="none">
<path d="M1670 1889 c0 -11 -33 -89 -51 -119 -5 -8 -13 -25 -19 -38 -15 -34
-31 -36 -132 -12 -162 37 -558 38 -713 1 -115 -27 -99 -32 -139 53 -20 42 -36
80 -36 84 0 4 -4 14 -9 21 -8 12 -19 6 -60 -32 -28 -26 -57 -47 -64 -47 -8 0
-20 -7 -27 -15 -7 -8 -22 -15 -34 -15 -12 0 -26 -4 -31 -9 -9 -8 -73 -23 -227
-55 -72 -14 -108 -46 -108 -96 0 -40 27 -71 108 -125 24 -16 90 -75 148 -132
57 -57 110 -103 118 -103 18 0 168 50 181 60 18 14 188 58 286 74 126 21 392
21 518 0 147 -24 243 -52 346 -100 64 -29 122 -39 150 -24 14 7 25 17 25 21 0
10 74 89 84 89 4 0 17 11 29 23 12 13 56 52 97 87 113 96 113 96 107 140 -3
21 -13 47 -23 57 -18 18 -97 41 -209 62 -103 19 -210 68 -266 121 -46 44 -49
45 -49 29z m113 -123 c104 -47 138 -59 189 -66 108 -16 169 -32 165 -43 -6
-18 -27 -20 -27 -3 0 14 -2 14 -19 -1 -10 -10 -35 -31 -56 -47 -21 -17 -34
-31 -28 -33 6 -2 28 12 49 31 22 20 42 36 46 36 15 0 -4 -28 -25 -38 -12 -7
-37 -24 -55 -38 -22 -18 -30 -22 -26 -10 7 19 -16 22 -34 4 -9 -9 -12 -9 -12
0 0 7 -8 12 -17 12 -13 0 -6 10 22 35 53 45 36 45 -19 0 -47 -38 -61 -44 -52
-19 5 12 2 15 -11 10 -9 -4 -39 4 -67 17 -28 13 -78 32 -111 43 -33 10 -64 21
-69 26 -5 4 2 22 16 40 14 18 31 50 38 70 l14 37 28 -24 c16 -14 43 -31 61
-39z m-1223 37 c0 -10 11 -38 25 -62 31 -54 31 -59 -2 -67 -16 -3 -59 -21 -98
-39 -145 -69 -145 -69 -164 -51 -20 18 -41 22 -23 4 7 -7 12 -16 12 -22 0 -5
-3 -6 -7 -3 -3 4 -12 2 -20 -4 -14 -12 -38 3 -113 70 -19 17 -38 31 -42 31
-20 0 -2 -19 57 -64 36 -27 65 -50 65 -52 0 -10 -19 -2 -41 17 -13 11 -45 37
-71 57 -40 30 -59 52 -45 52 35 0 240 43 262 54 17 9 38 16 47 16 20 0 82 31
118 60 31 24 40 25 40 3z m770 -98 c69 -8 145 -19 170 -25 135 -34 192 -54
305 -105 84 -39 197 -75 232 -75 35 0 45 -16 16 -27 -10 -4 -60 -48 -112 -99
l-94 -93 -55 14 c-30 8 -60 19 -66 24 -18 15 -114 47 -191 64 -136 31 -222 40
-395 44 -144 3 -197 0 -295 -16 -169 -29 -207 -39 -335 -91 -89 -37 -108 -35
-154 13 -22 23 -61 59 -86 80 -25 20 -50 41 -57 47 -7 5 -17 10 -23 10 -16 0
-12 17 6 24 9 3 28 6 44 6 32 0 93 24 250 99 64 30 112 47 220 77 149 42 404
54 620 29z m-1211 -95 c19 -16 33 -32 30 -34 -2 -3 -22 11 -44 29 -22 19 -35
34 -30 34 6 0 25 -13 44 -29z m2008 -5 c-21 -19 -43 -35 -48 -35 -5 0 -12 -7
-15 -15 -4 -8 -13 -15 -21 -15 -8 0 8 18 35 40 28 21 53 44 57 50 3 5 12 10
18 10 7 0 -5 -16 -26 -35z m43 2 c0 -2 -10 -12 -22 -23 l-23 -19 19 23 c18 21
26 27 26 19z m-2079 -24 c13 -16 12 -17 -3 -4 -10 7 -18 15 -18 17 0 8 8 3 21
-13z m40 -30 c13 -16 12 -17 -3 -4 -10 7 -18 15 -18 17 0 8 8 3 21 -13z m53 1
c5 -14 4 -15 -9 -4 -17 14 -19 20 -6 20 5 0 12 -7 15 -16z"/>
<path d="M1960 1585 c-7 -8 -8 -15 -2 -15 5 0 15 7 22 15 7 8 8 15 2 15 -5 0
-15 -7 -22 -15z"/>
<path d="M1080 1588 c5 -51 22 -73 34 -43 3 9 2 14 -2 11 -4 -2 -9 13 -9 35
-1 23 2 37 8 34 5 -4 9 -1 9 4 0 6 -10 11 -23 11 -21 0 -22 -3 -17 -52z"/>
<path d="M1148 1593 c-3 -27 -8 -56 -12 -65 -5 -11 -4 -18 3 -18 6 0 11 7 11
15 0 17 2 18 24 9 9 -3 16 -12 16 -20 0 -8 5 -14 11 -14 7 0 8 7 4 18 -4 9
-10 41 -13 70 -3 41 -8 52 -22 52 -14 0 -19 -10 -22 -47z m19 -25 c-2 -13 -4
-5 -4 17 -1 22 1 32 4 23 2 -10 2 -28 0 -40z"/>
<path d="M892 1618 c-16 -16 -16 -70 0 -86 7 -7 20 -12 30 -12 14 0 18 8 18
39 0 23 -7 46 -16 55 -19 19 -17 19 -32 4z m38 -54 c0 -19 -5 -34 -10 -34 -15
0 -32 49 -24 72 9 30 34 2 34 -38z"/>
<path d="M1002 1595 c0 -22 2 -34 5 -27 9 22 33 13 33 -13 0 -14 3 -25 8 -25
4 0 5 24 3 52 -3 29 -7 43 -9 31 -2 -13 -10 -23 -17 -23 -7 0 -16 10 -18 23
-2 12 -5 4 -5 -18z"/>
<path d="M1219 1580 c-4 -46 -2 -50 16 -48 17 3 20 11 20 48 0 34 -4 46 -16
48 -14 2 -18 -7 -20 -48z m18 -32 c-3 -8 -6 -5 -6 6 -1 11 2 17 5 13 3 -3 4
-12 1 -19z"/>
<path d="M1285 1588 c-4 -18 -9 -41 -11 -50 -4 -12 0 -18 10 -18 9 0 13 6 10
14 -3 8 -1 17 5 21 6 3 11 -2 11 -13 0 -12 9 -22 23 -26 33 -9 37 -8 37 9 0 8
-4 15 -10 15 -5 0 -10 -5 -10 -11 0 -5 -4 -8 -9 -5 -5 3 -7 27 -5 53 4 46 4
47 -9 20 -13 -26 -31 -29 -21 -2 3 7 1 16 -5 19 -5 3 -12 -8 -16 -26z"/>
<path d="M1371 1582 c-1 -24 3 -41 8 -38 4 3 6 -7 4 -22 -4 -26 -4 -27 13 -7
14 17 16 17 11 3 -4 -10 -3 -18 2 -18 5 0 11 16 13 35 3 25 0 35 -10 35 -9 0
-11 7 -7 23 6 21 5 21 -7 2 -12 -19 -12 -19 -19 5 -6 20 -7 16 -8 -18z"/>
<path d="M814 1594 c3 -9 9 -33 12 -54 5 -31 9 -37 26 -32 17 4 19 10 14 45
-8 51 -13 57 -38 57 -14 0 -18 -5 -14 -16z m23 -16 c-3 -8 -6 -5 -6 6 -1 11 2
17 5 13 3 -3 4 -12 1 -19z m23 -50 c0 -5 -4 -8 -10 -8 -5 0 -10 10 -10 23 0
18 2 19 10 7 5 -8 10 -18 10 -22z"/>
<path d="M754 1585 c8 -9 18 -31 22 -50 3 -19 10 -35 14 -35 5 0 4 16 -2 36
-5 20 -7 42 -4 50 4 10 -2 14 -20 14 -23 0 -24 -2 -10 -15z"/>
<path d="M687 1583 c-13 -12 -7 -62 9 -77 8 -9 25 -16 37 -15 l22 0 -21 9
c-12 5 -26 22 -32 39 -10 29 -8 35 11 32 4 0 7 4 7 9 0 11 -23 14 -33 3z"/>
<path d="M1461 1552 c-16 -48 -11 -63 11 -30 8 13 12 33 8 47 -5 22 -7 21 -19
-17z"/>
<path d="M1500 1575 c0 -20 0 -20 -10 -55 -5 -18 -5 -30 1 -30 5 0 9 9 9 20 0
12 7 34 15 50 14 27 14 30 0 30 -8 0 -15 -7 -15 -15z"/>
<path d="M1531 1532 c-21 -45 -21 -46 -1 -22 l21 25 -7 -30 c-7 -27 -6 -29 9
-16 15 12 17 11 18 -5 0 -15 2 -14 11 6 5 14 14 38 19 53 7 25 6 27 -6 17 -8
-7 -15 -21 -15 -31 0 -11 -5 -19 -11 -19 -7 0 -9 11 -6 30 10 47 -8 43 -32 -8z"/>
<path d="M623 1555 c8 -7 18 -30 21 -50 5 -23 12 -35 23 -35 15 0 15 2 1 18
-9 9 -19 32 -23 50 -4 19 -13 32 -22 32 -13 0 -13 -2 0 -15z"/>
<path d="M576 1533 c3 -12 1 -24 -6 -28 -7 -4 -14 1 -17 14 -3 12 -9 21 -14
21 -9 0 10 -55 31 -87 10 -15 10 -14 6 8 -8 36 5 44 27 17 17 -23 18 -22 2 17
-18 44 -37 70 -29 38z"/>
<path d="M1655 1526 c18 -13 18 -15 2 -40 -10 -14 -22 -26 -27 -26 -13 0 -13
33 1 47 8 8 8 13 0 17 -18 12 -35 -45 -18 -61 18 -18 46 -6 58 24 14 38 11 53
-13 53 -21 0 -21 -1 -3 -14z"/>
<path d="M484 1522 c-8 -5 -4 -22 11 -54 20 -44 23 -46 41 -33 19 13 19 13 -1
12 -14 -1 -20 4 -18 17 1 11 -6 26 -15 33 -15 11 -15 14 -2 23 8 5 11 10 5 10
-5 0 -15 -4 -21 -8z"/>
<path d="M1742 1497 c26 -21 27 -24 12 -51 -9 -20 -11 -33 -5 -39 10 -10 31
28 31 55 0 5 7 8 15 4 8 -3 15 -1 15 4 0 5 -11 12 -25 16 -13 3 -29 12 -36 20
-6 8 -17 14 -23 14 -6 -1 1 -11 16 -23z"/>
<path d="M428 1473 c31 -46 33 -51 17 -57 -8 -3 -14 0 -12 6 1 7 -3 12 -10 13
-16 0 -29 15 -13 15 10 0 10 3 0 15 -10 12 -15 13 -21 4 -11 -18 -2 -90 12
-103 9 -8 10 -5 6 12 -4 18 -2 22 12 17 9 -3 26 3 38 12 l21 17 -20 29 c-17
24 -18 31 -7 38 10 6 6 9 -14 9 l-28 0 19 -27z"/>
<path d="M1684 1486 c-9 -23 -1 -49 16 -53 13 -4 13 -3 0 6 -12 9 -13 14 -2
31 15 24 15 30 2 30 -6 0 -13 -6 -16 -14z"/>
<path d="M1818 1451 c-10 -20 -18 -44 -18 -51 0 -21 29 22 30 43 0 10 4 16 8
13 4 -2 9 4 9 15 3 30 -10 22 -29 -20z"/>
<path d="M1860 1454 c0 -14 3 -14 15 -4 8 7 15 14 15 16 0 2 -7 4 -15 4 -8 0
-15 -7 -15 -16z"/>
<path d="M1836 1418 c-8 -32 -8 -38 3 -38 14 0 24 41 13 52 -6 6 -12 1 -16
-14z"/>
<path d="M997 1252 c-9 -10 -17 -33 -17 -51 0 -32 -1 -32 -42 -29 -41 3 -44 5
-56 46 l-14 42 -56 -1 c-32 0 -88 -6 -127 -12 -70 -12 -70 -12 -73 -47 -7 -71
47 -200 84 -200 16 0 25 -40 18 -82 -6 -36 -27 -105 -55 -186 -11 -30 -19 -62
-19 -72 0 -30 -17 -32 -67 -10 -27 12 -69 24 -94 27 -42 5 -49 3 -70 -22 -37
-44 -177 -185 -183 -185 -3 0 -14 -8 -24 -18 -34 -31 -62 -52 -72 -52 -13 0
-23 -63 -15 -98 8 -40 31 -58 85 -67 25 -4 62 -14 84 -21 21 -8 50 -14 63 -14
14 0 37 -6 51 -13 15 -8 45 -22 67 -33 22 -10 63 -37 91 -60 l51 -43 17 42
c30 73 67 147 74 147 4 0 36 -10 72 -22 60 -20 86 -21 330 -22 229 0 273 2
325 18 33 10 73 19 90 20 31 1 40 -11 101 -151 l19 -41 49 49 c27 27 57 49 67
49 10 0 20 4 24 10 6 10 96 38 229 71 104 25 126 43 126 100 0 40 -5 46 -167
206 l-166 164 -48 -11 c-26 -6 -56 -18 -66 -25 -27 -21 -29 -19 -43 33 -6 26
-18 64 -26 85 -8 20 -14 47 -14 60 0 12 -7 35 -15 51 -25 47 -19 91 14 115 42
30 70 94 73 170 l3 64 -70 13 c-92 16 -166 16 -187 0 -11 -8 -18 -26 -18 -45
0 -30 -1 -31 -44 -31 -43 0 -43 0 -49 41 -3 22 -8 44 -12 47 -4 4 -68 8 -144
10 -124 3 -138 2 -154 -16z m266 -47 c18 -58 20 -60 96 -63 66 -3 72 -1 80 20
5 13 7 26 4 31 -2 4 6 7 19 8 13 0 17 3 10 6 -6 2 -9 9 -6 14 6 10 50 5 122
-13 49 -12 53 -28 26 -112 -12 -38 -26 -59 -56 -81 -39 -30 -40 -31 -34 -80 6
-47 31 -134 62 -215 7 -19 16 -49 19 -66 7 -34 2 -37 -100 -67 -140 -40 -228
-50 -427 -44 -177 5 -239 13 -298 40 -8 4 -35 11 -59 15 -54 9 -67 31 -19 33
30 2 30 2 6 6 -26 4 -41 33 -18 33 5 0 7 7 4 15 -4 11 1 15 17 15 21 1 22 2 7
11 -10 5 -18 14 -18 19 0 6 8 10 18 11 10 0 12 3 5 6 -23 9 -14 23 15 23 l27
1 -25 14 -25 14 35 1 c33 1 33 2 13 12 -13 6 -23 15 -23 20 0 4 10 8 23 9 21
0 21 1 -3 12 -23 10 -21 11 30 17 35 4 44 8 25 9 -16 1 -39 6 -50 11 -19 7
-19 8 -2 15 10 4 16 13 13 21 -3 8 5 14 22 17 26 4 26 4 5 12 -27 9 -30 25 -5
26 9 0 1 7 -18 14 -34 13 -34 14 -7 14 41 1 32 21 -10 22 -31 2 -33 3 -10 6
36 6 25 23 -16 24 -18 1 -24 3 -14 6 25 7 11 23 -21 24 -24 0 -25 1 -7 9 17 7
17 9 3 9 -16 1 -22 14 -21 49 1 6 -3 12 -7 12 -5 0 -8 9 -7 20 2 24 43 40 101
40 53 0 66 -10 75 -51 9 -43 40 -52 151 -42 47 4 73 9 58 11 -25 3 -41 22 -19
22 5 0 7 9 4 20 -11 42 12 51 121 48 l101 -3 8 -30z m537 -554 c0 -16 153
-173 177 -182 32 -12 29 -29 -7 -29 -31 0 -116 -30 -216 -75 -32 -15 -77 -35
-99 -45 -140 -63 -338 -100 -548 -100 -145 0 -236 10 -352 40 -102 27 -139 41
-235 91 -19 10 -93 45 -148 70 -23 10 -60 19 -82 19 -22 0 -40 3 -40 8 0 4 25
27 56 52 31 25 78 69 104 98 53 61 44 61 190 4 193 -76 320 -96 552 -89 101 3
210 11 243 18 94 19 256 69 284 88 14 9 43 21 65 27 55 15 56 15 56 5z m-1547
-283 c-18 -18 -36 -29 -40 -25 -8 8 45 56 62 57 5 0 -5 -14 -22 -32z m61 17
c-7 -18 7 -20 24 -3 9 9 12 9 12 0 0 -7 7 -12 16 -12 14 0 14 -3 4 -15 -17
-20 -1 -19 22 2 13 11 18 12 18 3 0 -7 -8 -19 -17 -26 -10 -7 -13 -14 -7 -14
6 0 17 7 24 15 19 23 8 27 228 -78 12 -6 19 -13 15 -16 -13 -9 -43 -68 -43
-83 0 -7 -4 -19 -9 -27 -8 -12 -11 -12 -25 0 -36 30 -42 35 -76 50 -73 34
-148 57 -234 72 -109 20 -125 31 -95 64 13 12 27 23 32 23 6 0 0 -12 -14 -27
-20 -22 -21 -25 -5 -19 11 4 22 2 26 -4 4 -7 26 6 56 34 27 25 43 45 35 46
-11 0 -11 3 -1 15 7 8 14 15 16 15 2 0 1 -7 -2 -15z m1686 -57 c24 -21 48 -38
53 -38 14 0 -26 47 -60 70 -18 13 -33 27 -33 32 0 11 64 -38 94 -71 10 -11 24
-18 30 -14 6 3 2 -4 -10 -16 -21 -22 -107 -51 -154 -51 -60 0 -230 -79 -253
-117 -13 -21 -24 -15 -31 14 -9 38 -39 103 -48 103 -5 0 -8 4 -8 9 0 4 28 18
63 30 34 12 78 30 97 41 19 10 44 20 55 22 11 1 23 7 27 13 5 6 12 5 20 -3 17
-17 33 -15 19 2 -9 11 -7 15 10 19 24 6 59 -8 59 -23 0 -6 8 -10 17 -10 14 0
13 3 -5 23 -27 28 -29 44 -4 20 10 -10 38 -35 62 -55z m25 62 c3 -6 -1 -7 -9
-4 -18 7 -21 14 -7 14 6 0 13 -4 16 -10z m-1835 -24 c0 -2 -8 -10 -17 -17 -16
-13 -17 -12 -4 4 13 16 21 21 21 13z m62 -38 c-18 -17 -35 -28 -39 -24 -4 4 8
20 27 36 19 16 37 27 39 24 2 -2 -10 -18 -27 -36z m1848 2 c0 -5 -2 -10 -4
-10 -3 0 -8 5 -11 10 -3 6 -1 10 4 10 6 0 11 -4 11 -10z"/>
<path d="M931 1016 c-27 -28 -30 -57 -3 -34 11 11 43 17 97 19 l80 4 -32 -29
c-20 -16 -33 -38 -33 -51 0 -21 -5 -24 -47 -27 -25 -2 -48 -8 -50 -14 -2 -6 8
-9 26 -6 39 6 71 -13 71 -43 0 -21 -3 -23 -33 -18 -22 3 -37 0 -45 -10 -10
-12 -8 -14 12 -10 18 4 27 -1 36 -17 10 -19 6 -27 -37 -70 -44 -44 -46 -48
-23 -45 79 12 112 13 175 5 68 -9 71 -8 113 21 30 22 42 26 42 15 0 -43 61
-56 96 -21 12 12 11 14 -8 17 -22 3 -23 7 -26 133 -2 117 -1 132 18 157 25 35
26 46 0 23 -20 -18 -30 -16 -66 10 -20 15 -23 14 -53 -12 -34 -30 -42 -50 -12
-31 30 18 53 -6 49 -51 l-4 -36 -53 0 c-29 0 -55 4 -58 9 -3 5 -5 36 -5 70 l1
61 -103 2 c-96 1 -106 0 -125 -21z m209 -155 l0 -138 -61 -12 c-63 -13 -88 -7
-54 11 11 7 35 26 53 44 31 31 32 35 32 114 0 71 10 120 25 120 3 0 5 -62 5
-139z m123 19 c11 0 17 -8 17 -24 0 -22 -3 -23 -62 -22 -55 2 -63 5 -63 21 0
21 37 36 70 29 11 -2 28 -4 38 -4z m9 -74 c15 -22 7 -63 -16 -85 -20 -19 -32
-22 -59 -17 -32 6 -35 10 -39 47 -4 45 6 65 37 72 27 6 68 -3 77 -17z"/>
<path d="M594 555 c-19 -15 -19 -15 1 -13 11 1 35 0 54 0 l34 -2 -27 -25 c-20
-19 -34 -24 -54 -19 -23 4 -24 3 -9 -6 9 -6 17 -19 17 -29 0 -14 -6 -17 -27
-15 -16 2 -20 1 -10 -2 12 -4 16 -12 12 -25 -4 -11 -2 -19 5 -19 20 0 50 20
50 35 0 7 15 33 33 57 l34 44 -41 17 c-50 21 -48 21 -72 2z"/>
<path d="M1570 530 c0 -5 -8 -6 -17 -3 -16 6 -16 5 -3 -11 24 -30 38 -56 64
-118 9 -23 17 -28 47 -28 35 0 69 23 69 48 0 19 -40 80 -57 86 -10 4 -23 0
-32 -10 -9 -9 -11 -14 -6 -11 15 8 27 -2 48 -40 23 -41 22 -45 -10 -41 -22 2
-30 10 -38 36 -5 17 -12 32 -16 32 -4 0 -13 16 -19 35 -11 32 -30 48 -30 25z"/>
<path d="M720 520 c-9 -6 -10 -10 -3 -10 6 0 15 5 18 10 8 12 4 12 -15 0z"/>
<path d="M1493 473 c-7 -15 -9 -29 -5 -32 10 -8 42 -75 42 -90 0 -14 47 -15
55 -1 3 6 1 10 -5 10 -5 0 -20 20 -32 46 -19 39 -20 46 -8 54 12 8 12 10 1 10
-8 0 -19 7 -25 15 -9 13 -13 11 -23 -12z"/>
<path d="M746 468 c9 -30 10 -31 28 -25 21 8 8 47 -16 47 -15 0 -18 -4 -12
-22z"/>
<path d="M666 442 c-5 -8 2 -21 18 -33 14 -11 26 -30 26 -42 0 -28 15 -51 27
-44 13 8 2 67 -19 96 -9 13 -21 20 -26 17 -6 -3 -12 -1 -14 6 -3 9 -6 9 -12 0z"/>
<path d="M1416 437 c-15 -11 -17 -21 -12 -43 4 -16 10 -41 13 -56 4 -23 11
-28 33 -28 15 0 33 7 40 15 11 13 9 15 -13 15 -17 0 -26 7 -31 23 -10 38 -7
57 10 57 19 0 13 24 -7 28 -8 1 -23 -4 -33 -11z"/>
<path d="M819 426 c12 -15 -3 -75 -23 -88 -7 -5 -7 -8 2 -8 8 0 12 -10 10 -27
-2 -19 2 -28 15 -31 10 -2 17 3 17 12 0 11 9 16 28 16 40 0 49 10 64 63 10 40
10 49 -2 62 -21 20 -49 3 -31 -19 16 -19 -3 -86 -24 -86 -29 0 -37 49 -13 77
16 20 1 43 -28 43 -21 0 -24 -3 -15 -14z"/>
<path d="M1273 411 c-19 -16 -20 -22 -11 -63 9 -39 15 -47 39 -52 30 -6 60 1
70 17 8 11 0 89 -10 98 -16 17 -67 16 -88 0z m69 -52 c3 -28 0 -43 -10 -46
-19 -8 -32 8 -39 50 -5 34 -4 37 20 37 22 0 25 -5 29 -41z"/>
<path d="M994 410 c-20 -8 -34 -45 -34 -91 0 -24 35 -42 63 -33 22 7 22 8 -3
14 -38 9 -35 33 7 55 21 10 40 21 42 22 6 4 -36 43 -46 42 -4 0 -17 -4 -29 -9z
m40 -25 c3 -9 -3 -19 -14 -25 -17 -9 -20 -7 -20 15 0 27 24 35 34 10z"/>
<path d="M1177 363 c6 -73 10 -86 25 -81 15 5 11 107 -4 126 -20 24 -26 11
-21 -45z"/>
<path d="M1098 349 c-3 -62 4 -81 28 -72 18 7 19 104 2 121 -21 21 -26 13 -30
-49z"/>
<path d="M525 390 c-15 -6 -8 -9 30 -15 28 -4 62 -15 77 -23 21 -12 31 -13 39
-5 22 22 -104 59 -146 43z"/>
<path d="M330 355 c-8 -9 -8 -15 -2 -15 12 0 26 19 19 26 -2 2 -10 -2 -17 -11z"/>
<path d="M1880 366 c0 -2 7 -9 15 -16 13 -11 14 -10 9 4 -5 14 -24 23 -24 12z"/>
<path d="M1960 331 c0 -10 53 -51 65 -51 4 0 -6 14 -22 30 -28 31 -43 37 -43
21z"/>
<path d="M200 1130 c-29 -9 -65 -28 -99 -52 -18 -12 -24 -28 -27 -65 -3 -40
-2 -43 5 -20 11 34 45 68 84 85 32 14 116 16 136 3 24 -15 2 -32 -34 -25 -44
8 -94 -19 -95 -50 0 -6 5 -5 12 2 14 14 64 16 73 3 3 -5 -6 -18 -20 -29 -14
-11 -25 -23 -25 -26 0 -4 -20 -27 -45 -52 -25 -24 -45 -48 -45 -53 0 -5 -7
-11 -14 -14 -19 -7 -49 -64 -41 -77 12 -20 25 -9 19 15 -5 22 -3 25 21 25 16
0 52 -11 82 -25 l54 -26 64 35 65 35 6 -24 c10 -42 30 -50 69 -29 39 20 45 34
16 34 -16 0 -19 11 -25 92 -11 164 -9 186 20 213 32 30 13 34 -23 5 -23 -18
-27 -19 -61 -4 -80 35 -122 40 -172 24z m158 -72 c7 -7 12 -40 12 -80 l0 -68
-86 0 c-49 0 -84 4 -82 9 5 15 129 151 137 151 4 0 12 -5 19 -12z m10 -200
c-2 -12 -18 -33 -37 -45 -37 -25 -58 -24 -127 8 -22 10 -49 19 -59 19 -17 0
-17 1 0 20 16 18 31 20 122 20 102 0 104 0 101 -22z"/>
<path d="M1814 1118 c-50 -38 -63 -73 -17 -43 19 13 49 19 95 20 37 0 68 -2
68 -5 0 -3 -12 -16 -25 -29 -14 -13 -25 -33 -25 -46 0 -21 -4 -23 -38 -18 -27
4 -42 1 -51 -11 -12 -14 -9 -16 27 -16 31 0 44 -5 52 -19 19 -36 12 -46 -32
-46 -22 0 -43 -5 -45 -12 -3 -7 3 -9 16 -6 20 5 51 -11 51 -27 0 -10 -74 -86
-91 -92 -8 -3 -11 -8 -7 -12 3 -4 15 -3 26 3 27 14 177 14 204 0 24 -13 59 2
96 40 l22 24 33 -38 33 -38 27 18 c29 19 35 35 14 35 -14 0 -57 41 -57 54 0 9
-47 53 -77 73 -18 12 -21 19 -13 34 9 15 8 17 -7 12 -10 -3 -27 -16 -38 -27
l-20 -21 -5 65 c-7 85 -20 54 -20 -46 0 -60 -4 -78 -19 -93 -25 -25 -66 -46
-106 -55 -26 -5 -28 -5 -10 6 24 14 40 26 71 55 21 20 24 31 24 97 0 49 6 85
17 108 32 64 34 70 30 74 -2 2 -18 -1 -35 -7 -23 -8 -41 -8 -63 0 -47 16 -73
14 -105 -11z m294 -250 c49 -46 18 -73 -73 -63 l-66 7 31 34 c16 19 30 40 30
45 0 17 51 1 78 -23z"/>
<path d="M2171 1093 l-21 -18 30 -20 c37 -25 37 -31 3 -43 -27 -10 -27 -10 -4
-11 20 -1 91 34 91 44 0 7 -62 65 -70 65 -4 0 -17 -8 -29 -17z"/>
</g>
</svg>
