<?xml version="1.0" standalone="no"?>
<!DOCTYPE svg PUBLIC "-//W3C//DTD SVG 20010904//EN"
 "http://www.w3.org/TR/2001/REC-SVG-20010904/DTD/svg10.dtd">
<svg version="1.0" xmlns="http://www.w3.org/2000/svg"
 width="234.000000pt" height="192.000000pt" viewBox="0 0 234.000000 192.000000"
 preserveAspectRatio="xMidYMid meet">

<g transform="translate(0.000000,192.000000) scale(0.100000,-0.100000)"
fill="#000000" stroke="none">
<path d="M1651 1842 c-38 -89 -71 -142 -89 -142 -10 1 -44 8 -77 16 -172 44
-567 46 -739 3 -44 -10 -83 -19 -87 -19 -7 0 -72 130 -83 168 -4 12 -10 22
-14 22 -4 0 -25 -17 -47 -38 -43 -41 -99 -71 -180 -96 -66 -20 -219 -56 -242
-56 -10 0 -31 -11 -46 -25 -20 -19 -27 -35 -27 -63 0 -45 19 -68 92 -116 31
-20 105 -85 164 -143 l107 -106 51 12 c28 7 60 16 71 21 129 56 183 72 345
101 194 35 502 23 680 -27 66 -19 154 -50 195 -69 63 -30 122 -40 150 -25 14
7 25 17 25 21 0 10 74 89 84 89 4 0 17 11 29 23 12 13 56 52 97 87 105 89 110
95 110 133 0 66 -54 95 -235 126 -100 18 -210 67 -266 121 -23 22 -43 40 -43
40 -1 0 -12 -26 -25 -58z m141 -80 c100 -46 126 -55 180 -62 106 -15 169 -31
165 -43 -6 -19 -27 -19 -27 0 -1 17 -1 17 -11 1 -11 -20 -39 -24 -39 -7 0 10
-29 -9 -85 -55 -16 -14 -25 -25 -19 -26 6 0 29 16 53 36 23 20 45 34 48 30 6
-6 -36 -45 -49 -46 -12 0 -10 -20 1 -20 6 0 27 16 48 35 21 19 41 35 45 35 15
0 -4 -28 -25 -38 -12 -7 -37 -24 -55 -38 -22 -18 -30 -22 -26 -10 7 19 -16 22
-34 4 -9 -9 -12 -9 -12 0 0 7 -8 12 -17 12 -13 0 -6 10 22 35 53 45 36 45 -19
0 -47 -38 -61 -44 -52 -19 5 12 2 15 -11 10 -9 -4 -39 4 -67 17 -67 31 -115
48 -149 54 -39 7 -42 19 -14 56 13 18 30 49 37 69 l14 37 28 -24 c15 -13 47
-32 70 -43z m-1232 42 c0 -9 12 -39 27 -66 23 -41 25 -51 12 -59 -7 -5 -21 -9
-30 -9 -8 0 -42 -14 -75 -31 -32 -16 -75 -36 -95 -43 -35 -12 -39 -11 -67 16
-17 15 -35 28 -39 28 -4 -1 7 -14 26 -30 59 -50 26 -45 -39 5 -33 27 -62 46
-65 43 -2 -2 18 -21 45 -42 28 -21 50 -42 50 -48 0 -5 -5 -6 -11 -2 -6 3 -14
1 -18 -5 -5 -7 -22 0 -52 21 -45 33 -61 49 -54 56 2 2 25 -13 50 -33 25 -21
48 -35 52 -31 3 3 4 7 2 9 -77 58 -108 76 -111 65 -4 -10 -8 -10 -22 1 -9 8
-20 11 -23 7 -4 -4 -3 -10 3 -14 30 -21 124 -95 124 -98 0 -10 -19 -2 -41 17
-13 11 -45 37 -71 57 -27 20 -48 39 -48 43 0 4 44 14 98 23 53 9 111 21 127
25 90 27 168 61 205 91 31 24 40 25 40 4z m765 -98 c192 -22 314 -56 480 -131
79 -36 196 -75 226 -75 32 0 48 -17 24 -26 -31 -12 -141 -112 -182 -167 l-22
-28 -58 17 c-32 9 -63 20 -68 24 -6 5 -35 17 -65 28 -225 80 -565 106 -815 63
-171 -30 -208 -40 -335 -91 -89 -37 -108 -35 -154 13 -22 23 -61 59 -86 80
-25 20 -50 41 -57 47 -7 5 -17 10 -23 10 -16 0 -12 17 6 24 9 3 28 6 44 6 25
0 73 17 155 55 138 63 171 77 222 93 207 66 456 87 708 58z m-1206 -96 c19
-16 33 -32 30 -34 -2 -3 -22 11 -44 29 -22 19 -35 34 -30 34 6 0 25 -13 44
-29z m2008 -5 c-21 -19 -43 -35 -48 -35 -5 0 -12 -7 -15 -15 -4 -8 -13 -15
-21 -15 -8 0 8 18 35 40 28 21 53 44 57 50 3 5 12 10 18 10 7 0 -5 -16 -26
-35z m43 2 c0 -2 -10 -12 -22 -23 l-23 -19 19 23 c18 21 26 27 26 19z m-2079
-24 c13 -16 12 -17 -3 -4 -10 7 -18 15 -18 17 0 8 8 3 21 -13z m40 -30 c13
-16 12 -17 -3 -4 -10 7 -18 15 -18 17 0 8 8 3 21 -13z m53 1 c5 -14 4 -15 -9
-4 -17 14 -19 20 -6 20 5 0 12 -7 15 -16z"/>
<path d="M2000 1649 c0 -5 5 -7 10 -4 6 3 10 8 10 11 0 2 -4 4 -10 4 -5 0 -10
-5 -10 -11z"/>
<path d="M1910 1620 c-8 -5 -12 -12 -9 -15 4 -3 12 1 19 10 14 17 11 19 -10 5z"/>
<path d="M1041 1618 c-1 -32 -31 -40 -31 -8 0 11 -4 20 -8 20 -4 0 -6 -17 -3
-37 2 -21 6 -32 8 -25 8 22 33 13 33 -13 0 -14 3 -25 8 -25 4 0 6 19 4 43 -4
57 -9 78 -11 45z"/>
<path d="M1078 1585 c2 -30 8 -55 13 -55 10 0 13 28 10 74 -2 18 1 26 8 21 6
-3 11 -1 11 4 0 6 -10 11 -22 11 -22 0 -23 -4 -20 -55z"/>
<path d="M1150 1630 c0 -5 5 -10 10 -10 6 0 10 -20 10 -44 0 -48 9 -55 55 -47
28 6 30 9 30 51 0 34 -4 46 -17 48 -13 3 -17 -6 -20 -39 -5 -63 -28 -63 -28 0
0 44 -3 51 -20 51 -11 0 -20 -4 -20 -10z m87 -82 c-3 -8 -6 -5 -6 6 -1 11 2
17 5 13 3 -3 4 -12 1 -19z"/>
<path d="M892 1618 c-16 -16 -16 -70 0 -86 7 -7 20 -12 30 -12 14 0 18 8 18
39 0 23 -7 46 -16 55 -19 19 -17 19 -32 4z m38 -54 c0 -19 -5 -34 -10 -34 -15
0 -32 49 -24 72 9 30 34 2 34 -38z"/>
<path d="M1286 1593 c-4 -21 -9 -46 -12 -55 -3 -11 0 -18 8 -18 9 0 14 18 16
55 4 63 -3 72 -12 18z"/>
<path d="M1326 1598 c-10 -51 -13 -78 -7 -78 3 0 16 -3 29 -6 16 -5 22 -2 22
10 0 9 -4 16 -10 16 -5 0 -10 -5 -10 -11 0 -5 -4 -8 -9 -5 -5 3 -6 26 -3 51 5
46 -4 63 -12 23z"/>
<path d="M814 1594 c3 -9 9 -33 12 -54 5 -31 9 -37 26 -32 17 4 19 10 14 45
-8 51 -13 57 -38 57 -14 0 -18 -5 -14 -16z m23 -16 c-3 -8 -6 -5 -6 6 -1 11 2
17 5 13 3 -3 4 -12 1 -19z m23 -50 c0 -5 -4 -8 -10 -8 -5 0 -10 10 -10 23 0
18 2 19 10 7 5 -8 10 -18 10 -22z"/>
<path d="M754 1585 c8 -9 18 -31 22 -50 3 -19 10 -35 15 -35 4 0 3 14 -3 30
-5 17 -8 39 -5 50 4 16 0 20 -20 20 -22 0 -23 -2 -9 -15z"/>
<path d="M1470 1585 c0 -8 2 -15 4 -15 2 0 6 7 10 15 3 8 1 15 -4 15 -6 0 -10
-7 -10 -15z"/>
<path d="M687 1583 c-14 -13 -6 -61 13 -83 16 -18 23 -21 32 -12 9 9 8 12 -4
12 -10 0 -19 12 -23 30 -7 32 -4 46 8 43 4 -2 7 2 7 7 0 11 -23 14 -33 3z"/>
<path d="M1500 1563 c0 -29 2 -29 19 5 10 18 9 22 -4 22 -10 0 -15 -9 -15 -27z"/>
<path d="M1383 1573 c-7 -3 -13 -11 -13 -19 0 -9 4 -13 9 -10 4 3 6 -7 4 -22
-4 -26 -4 -27 13 -7 14 17 16 17 11 3 -4 -12 -1 -18 9 -18 11 0 13 7 8 28 -8
33 -25 51 -41 45z"/>
<path d="M1549 1573 c-8 -71 -6 -93 7 -82 11 9 14 8 15 -7 0 -15 2 -14 11 6 5
14 14 38 19 53 7 25 6 27 -6 17 -8 -7 -15 -21 -15 -31 0 -11 -5 -19 -11 -19
-7 0 -9 11 -6 30 4 16 2 32 -3 35 -6 3 -10 3 -11 -2z"/>
<path d="M623 1555 c8 -7 18 -30 21 -50 4 -19 13 -35 20 -35 11 0 9 9 -5 37
-10 21 -19 43 -19 50 0 7 -7 13 -16 13 -13 0 -14 -2 -1 -15z"/>
<path d="M1453 1533 c-7 -20 -8 -33 -2 -33 13 0 22 24 17 47 -3 13 -7 9 -15
-14z"/>
<path d="M1640 1549 c-12 -8 -12 -9 5 -7 26 4 31 -26 11 -57 -24 -37 -39 -32
-32 10 8 41 0 46 -15 8 -7 -20 -6 -30 4 -41 31 -30 78 29 62 79 -7 22 -14 23
-35 8z"/>
<path d="M580 1524 c19 -56 22 -64 31 -64 5 0 2 17 -6 38 -20 46 -37 66 -25
26z"/>
<path d="M544 1505 c20 -48 35 -72 36 -58 0 19 -34 93 -42 93 -5 0 -2 -16 6
-35z"/>
<path d="M484 1522 c-8 -5 -4 -22 11 -54 20 -44 23 -46 41 -33 19 13 19 13 -1
12 -14 -1 -20 4 -18 17 1 11 -6 26 -15 33 -15 11 -15 14 -2 23 8 5 11 10 5 10
-5 0 -15 -4 -21 -8z"/>
<path d="M1487 1510 c-3 -11 -1 -20 4 -20 5 0 9 9 9 20 0 11 -2 20 -4 20 -2 0
-6 -9 -9 -20z"/>
<path d="M1696 1505 c-20 -30 -18 -67 4 -72 12 -4 12 -2 2 5 -16 11 -7 55 15
73 12 10 17 10 25 -2 8 -12 9 -12 5 1 -6 25 -33 22 -51 -5z"/>
<path d="M1774 1501 c3 -4 -4 -25 -14 -47 -23 -44 -23 -44 -12 -44 5 0 16 18
26 40 10 23 25 40 34 41 14 0 13 2 -3 9 -27 11 -37 12 -31 1z"/>
<path d="M427 1476 c21 -28 24 -28 16 2 -3 12 -12 22 -20 22 -11 0 -10 -5 4
-24z"/>
<path d="M1817 1450 c-10 -22 -17 -45 -15 -51 2 -6 10 2 17 18 7 15 17 36 22
45 11 22 11 28 2 28 -5 0 -16 -18 -26 -40z"/>
<path d="M1850 1433 c-8 -21 -16 -41 -18 -45 -2 -5 1 -8 7 -8 6 0 14 12 17 28
4 15 14 35 22 45 13 15 13 17 1 17 -8 0 -21 -17 -29 -37z"/>
<path d="M380 1453 c0 -6 6 -14 13 -17 9 -5 9 -7 -1 -12 -9 -4 -5 -11 14 -20
38 -20 40 -11 5 28 -17 18 -31 28 -31 21z"/>
<path d="M450 1428 c0 -18 18 -34 28 -24 3 4 -2 14 -11 23 -16 16 -17 16 -17
1z"/>
<path d="M390 1380 c0 -5 5 -10 11 -10 5 0 7 5 4 10 -3 6 -8 10 -11 10 -2 0
-4 -4 -4 -10z"/>
<path d="M998 1253 c-9 -10 -18 -31 -20 -48 -3 -28 -6 -30 -42 -30 -37 0 -40
2 -53 43 l-15 42 -56 -1 c-31 0 -88 -6 -127 -12 -70 -12 -70 -12 -73 -47 -7
-71 47 -200 84 -200 31 0 26 -68 -16 -205 -12 -38 -27 -89 -34 -112 -6 -23
-15 -45 -18 -48 -3 -4 -26 2 -50 12 -24 11 -65 25 -92 33 l-50 14 -25 -35
c-32 -41 -142 -152 -200 -199 -24 -19 -49 -41 -56 -47 -8 -7 -18 -13 -23 -13
-5 0 -14 -16 -20 -36 -12 -40 2 -93 29 -110 17 -11 177 -53 202 -53 18 -1 52
-14 127 -49 19 -9 58 -35 86 -58 l51 -43 17 42 c32 77 67 147 76 147 4 0 27
-7 51 -16 24 -8 109 -22 189 -31 123 -13 167 -13 290 -3 80 7 170 19 200 27
30 9 68 16 85 17 31 1 41 -13 101 -151 l19 -42 31 32 c43 45 72 67 89 67 7 0
16 4 20 10 6 10 96 38 229 71 106 26 126 42 126 103 0 38 -5 49 -37 78 -20 18
-95 91 -166 161 l-129 129 -46 -12 c-26 -6 -57 -18 -69 -26 -17 -10 -24 -11
-29 -2 -9 14 -42 126 -54 186 -5 23 -14 51 -20 61 -20 39 -11 72 29 112 24 22
44 53 49 76 24 92 28 123 21 135 -9 15 -122 36 -194 37 -61 0 -85 -16 -85 -58
0 -30 -1 -31 -44 -31 -43 0 -43 0 -49 41 -3 22 -8 44 -12 47 -4 4 -68 8 -144
10 -122 3 -138 1 -153 -15z m265 -48 c16 -52 23 -60 58 -63 43 -5 194 11 157
16 -16 2 -28 8 -28 13 0 6 5 7 10 4 6 -3 10 -1 10 4 0 6 -8 11 -17 12 -12 1
-10 4 7 9 14 4 19 8 12 9 -7 1 -10 6 -7 11 7 11 49 7 123 -12 49 -12 53 -28
26 -113 -12 -37 -26 -58 -51 -75 -19 -13 -38 -31 -43 -39 -11 -21 18 -134 66
-261 7 -19 16 -49 19 -66 7 -35 0 -39 -105 -68 -133 -36 -213 -46 -374 -46
-168 0 -225 7 -336 39 -36 11 -77 22 -92 25 -16 4 -28 11 -28 17 0 11 45 8
120 -8 19 -3 22 -2 10 6 -8 5 -38 13 -67 17 -37 4 -53 11 -53 21 0 9 6 13 13
10 8 -3 40 -8 73 -11 58 -5 58 -5 14 5 -25 6 -55 13 -67 15 -13 2 -23 9 -23
15 0 6 23 8 63 5 57 -5 58 -4 15 3 -94 18 -88 44 7 31 33 -5 61 -7 63 -5 3 3
-19 8 -90 20 -44 7 -51 25 -10 25 l27 1 -25 14 c-25 14 -25 14 15 15 39 2 39
2 13 12 -34 12 -36 28 -5 29 21 0 21 1 -3 12 -23 10 -21 11 30 17 30 4 44 8
30 9 -42 2 -70 13 -64 23 3 5 19 6 35 3 18 -4 29 -3 29 4 0 6 -9 11 -19 11
-35 0 -34 20 1 21 l33 1 -27 11 c-37 15 -35 27 5 28 29 1 27 3 -18 14 -37 10
-43 13 -22 14 41 1 32 21 -10 22 -31 2 -33 3 -10 6 36 6 25 23 -16 24 -18 1
-24 3 -14 6 25 6 11 23 -21 24 l-27 1 25 8 c24 8 24 8 3 9 -13 1 -24 8 -24 16
-1 8 -2 21 -3 28 -1 6 -5 15 -9 18 -13 10 5 40 30 50 30 11 104 12 121 0 8 -5
17 -23 21 -42 9 -43 39 -52 156 -42 50 4 81 8 70 11 -43 7 -51 14 -30 22 11 5
14 9 8 9 -7 1 -13 9 -13 19 0 36 20 43 125 40 l100 -3 8 -30z m537 -554 c0
-15 159 -179 181 -186 29 -10 23 -25 -11 -25 -31 0 -116 -30 -216 -75 -118
-53 -140 -62 -189 -78 -211 -65 -442 -83 -665 -52 -171 24 -204 34 -375 115
-177 83 -195 90 -230 90 -18 0 -36 4 -39 8 -3 5 20 28 51 53 31 24 77 68 103
97 53 61 44 61 190 4 287 -112 593 -128 905 -45 79 21 147 44 163 56 12 9 108
45 125 46 4 1 7 -3 7 -8z m-1530 -266 c-7 -9 -15 -13 -17 -11 -7 7 7 26 19 26
6 0 6 -6 -2 -15z m44 0 c-7 -18 7 -20 24 -3 9 9 12 9 12 0 0 -7 8 -12 17 -12
13 0 8 -9 -17 -35 -45 -46 -30 -45 18 1 20 19 38 30 40 24 2 -6 -4 -18 -14
-25 -11 -8 -14 -15 -8 -15 6 0 17 7 24 15 19 23 8 27 228 -78 12 -6 19 -13 15
-16 -13 -9 -43 -68 -43 -83 0 -7 -4 -19 -9 -27 -8 -12 -11 -12 -25 0 -36 30
-42 35 -76 50 -70 32 -147 56 -235 73 -120 23 -126 29 -78 77 51 52 67 50 18
-2 -33 -34 -36 -40 -17 -34 14 4 22 2 22 -6 0 -8 4 -8 16 2 13 10 17 10 24 -1
7 -11 18 -5 52 25 24 21 45 43 47 48 6 16 -37 -12 -57 -38 -11 -14 -26 -25
-33 -25 -8 0 2 15 21 32 21 20 30 33 22 36 -10 3 -10 7 -1 18 15 18 20 18 13
-1z m1686 -57 c24 -21 48 -38 53 -38 14 0 -26 47 -60 70 -18 13 -33 27 -33 32
0 11 64 -38 94 -71 10 -11 24 -18 30 -14 6 3 2 -4 -9 -15 -19 -21 -117 -52
-161 -52 -22 0 -136 -40 -184 -65 -15 -8 -38 -25 -51 -39 -31 -33 -36 -32 -44
6 -8 36 -34 89 -50 101 -11 8 11 27 32 27 13 0 67 22 123 50 19 10 44 20 55
22 11 1 23 7 27 13 4 5 24 -5 47 -23 49 -39 54 -33 9 9 -48 43 -15 35 34 -8
24 -21 45 -41 46 -45 2 -5 9 -8 15 -8 6 0 -2 14 -18 30 -25 26 -26 30 -10 30
17 0 17 2 -3 23 -27 28 -29 44 -4 20 10 -10 38 -35 62 -55z m25 62 c3 -6 -1
-7 -9 -4 -18 7 -21 14 -7 14 6 0 13 -4 16 -10z m-109 -24 c10 -8 16 -18 11
-22 -4 -4 -16 2 -27 14 -23 25 -14 29 16 8z m-1726 0 c0 -2 -8 -10 -17 -17
-16 -13 -17 -12 -4 4 13 16 21 21 21 13z m61 -37 c-18 -16 -36 -27 -39 -24 -3
3 10 18 29 34 44 38 53 30 10 -10z m1849 1 c0 -5 -2 -10 -4 -10 -3 0 -8 5 -11
10 -3 6 -1 10 4 10 6 0 11 -4 11 -10z"/>
<path d="M933 1017 c-11 -12 -23 -31 -27 -42 -7 -19 -6 -18 16 2 19 17 38 22
103 25 l80 3 -32 -29 c-20 -16 -33 -38 -33 -51 0 -21 -5 -24 -47 -27 -25 -2
-48 -8 -50 -14 -2 -6 8 -9 26 -6 40 6 71 -13 71 -43 0 -22 -3 -24 -29 -19 -20
4 -37 0 -53 -11 l-23 -17 32 7 c26 5 34 2 43 -15 10 -19 6 -27 -39 -71 l-51
-49 43 6 c23 3 52 7 63 10 12 2 55 0 95 -6 73 -9 75 -9 117 21 30 22 42 26 42
15 0 -41 59 -56 94 -23 11 9 9 14 -8 22 -19 10 -21 20 -24 135 -2 112 -1 127
18 152 25 35 26 46 0 23 -20 -18 -30 -16 -66 10 -21 15 -24 14 -60 -19 -39
-36 -41 -46 -3 -23 17 10 22 9 33 -5 6 -9 11 -31 11 -49 -1 -28 -5 -35 -30
-42 -18 -5 -41 -4 -57 2 -27 10 -28 14 -28 78 l0 68 -104 2 c-95 2 -105 0
-123 -20z m207 -156 l0 -138 -42 -7 c-24 -3 -53 -9 -65 -12 -33 -9 -28 12 6
27 51 23 71 65 71 153 0 68 11 116 25 116 3 0 5 -62 5 -139z m136 -8 c3 -17
-3 -19 -56 -18 -53 0 -60 2 -60 20 0 18 6 20 57 19 47 -1 57 -5 59 -21z m-8
-38 c1 -1 4 -16 6 -34 3 -24 -3 -39 -20 -58 -20 -21 -29 -24 -59 -19 l-36 7 3
52 c3 45 6 52 28 58 21 5 68 2 78 -6z"/>
<path d="M798 763 c12 -2 30 -2 40 0 9 3 -1 5 -23 4 -22 0 -30 -2 -17 -4z"/>
<path d="M594 555 c-19 -15 -19 -15 1 -13 11 1 35 0 54 0 l34 -2 -27 -25 c-20
-19 -34 -24 -54 -19 -23 4 -24 3 -9 -6 9 -6 17 -19 17 -29 0 -14 -6 -17 -27
-15 -16 2 -20 1 -10 -2 12 -4 16 -12 12 -25 -4 -11 -2 -19 5 -19 20 0 50 20
50 35 0 7 15 33 33 57 l34 44 -41 17 c-50 21 -48 21 -72 2z"/>
<path d="M1570 530 c0 -5 -8 -6 -17 -3 -16 6 -16 5 -3 -11 24 -30 38 -56 64
-118 9 -23 17 -28 47 -28 35 0 69 23 69 48 0 19 -40 80 -57 86 -10 4 -23 0
-32 -10 -9 -9 -11 -14 -6 -11 15 8 27 -2 48 -40 23 -41 22 -45 -10 -41 -22 2
-30 10 -38 36 -5 17 -12 32 -16 32 -4 0 -13 16 -19 35 -11 32 -30 48 -30 25z"/>
<path d="M720 520 c-9 -6 -10 -10 -3 -10 6 0 15 5 18 10 8 12 4 12 -15 0z"/>
<path d="M1493 473 c-7 -15 -9 -29 -5 -32 10 -8 42 -75 42 -90 0 -6 14 -11 30
-11 17 0 30 5 30 10 0 6 -4 10 -10 10 -10 0 -50 71 -50 89 0 5 8 12 18 14 15
4 15 5 -2 6 -10 0 -24 8 -30 16 -9 13 -13 11 -23 -12z"/>
<path d="M746 468 c9 -30 10 -31 28 -25 21 8 8 47 -16 47 -15 0 -18 -4 -12
-22z"/>
<path d="M662 433 c-14 -26 -16 -45 -2 -23 7 12 12 12 29 -4 12 -11 21 -29 21
-40 0 -36 14 -48 41 -37 17 7 19 10 7 10 -13 1 -18 9 -18 29 -1 30 -34 77 -49
68 -5 -4 -11 0 -13 6 -3 8 -9 5 -16 -9z"/>
<path d="M1416 437 c-15 -11 -17 -21 -12 -43 4 -16 10 -41 13 -56 4 -23 11
-28 33 -28 15 0 33 7 40 15 11 13 9 15 -13 15 -17 0 -26 7 -31 23 -10 38 -7
57 10 57 19 0 13 24 -7 28 -8 1 -23 -4 -33 -11z"/>
<path d="M818 427 c15 -18 -6 -87 -27 -87 -11 0 -10 -3 5 -14 15 -12 17 -17 7
-27 -19 -19 -16 -24 12 -27 16 -1 25 3 25 13 0 10 10 15 28 15 35 0 48 9 61
43 22 57 5 108 -29 87 -11 -7 -11 -11 -1 -24 10 -12 10 -23 1 -51 -13 -39 -13
-39 -41 -25 -18 10 -18 13 -4 47 19 46 13 63 -21 63 -21 0 -24 -3 -16 -13z"/>
<path d="M1273 412 c-19 -17 -20 -23 -11 -64 9 -39 15 -47 39 -52 30 -6 60 1
70 17 8 11 0 89 -10 98 -17 18 -67 18 -88 1z m67 -57 c0 -25 -3 -45 -7 -45
-19 1 -32 18 -38 53 -7 35 -6 37 19 37 24 0 26 -3 26 -45z"/>
<path d="M994 410 c-15 -6 -24 -22 -31 -58 -9 -48 -9 -51 15 -61 13 -7 34 -8
46 -5 20 7 20 8 -4 14 -38 9 -35 33 7 55 21 10 40 21 42 22 6 4 -36 43 -46 42
-4 0 -17 -4 -29 -9z m35 -24 c10 -12 8 -17 -8 -26 -19 -9 -21 -8 -21 15 0 28
12 32 29 11z"/>
<path d="M1177 358 c6 -71 13 -84 40 -73 12 5 14 9 6 12 -8 3 -13 23 -13 52 0
43 -12 71 -31 71 -4 0 -5 -28 -2 -62z"/>
<path d="M1096 351 c2 -66 8 -83 28 -75 20 8 26 122 8 129 -32 12 -37 5 -36
-54z"/>
<path d="M524 389 c-14 -5 -5 -9 31 -14 28 -4 62 -15 77 -23 22 -13 30 -14 40
-4 9 9 4 14 -21 23 -18 6 -28 14 -23 18 14 8 -80 9 -104 0z"/>
<path d="M295 290 c-3 -5 -1 -10 4 -10 6 0 11 5 11 10 0 6 -2 10 -4 10 -3 0
-8 -4 -11 -10z"/>
<path d="M1830 332 c0 -12 19 -26 26 -19 2 2 -2 10 -11 17 -9 8 -15 8 -15 2z"/>
<path d="M1960 331 c0 -10 53 -51 65 -51 4 0 -6 14 -22 30 -28 31 -43 37 -43
21z"/>
<path d="M200 1130 c-70 -22 -116 -59 -128 -101 -12 -46 4 -86 49 -122 28 -22
31 -27 16 -33 -9 -3 -17 -12 -17 -19 0 -7 -7 -15 -14 -18 -19 -7 -49 -64 -41
-77 12 -20 25 -9 19 15 -5 22 -3 25 19 25 13 0 50 -11 81 -25 l57 -25 65 34
64 35 6 -24 c10 -42 30 -50 69 -29 39 20 45 34 16 34 -16 0 -19 11 -25 92 -11
164 -9 186 21 214 36 33 24 40 -17 9 -31 -23 -34 -24 -69 -9 -79 35 -121 40
-171 24z m99 -49 c24 -15 2 -32 -34 -25 -44 8 -94 -19 -95 -50 0 -6 5 -5 12 2
14 14 64 16 73 3 3 -5 -6 -18 -20 -29 -14 -11 -25 -22 -25 -25 0 -3 -11 -18
-24 -32 -16 -18 -31 -25 -43 -21 -21 7 -63 65 -63 89 0 23 46 70 83 84 38 14
116 16 136 4z m54 -25 c3 -8 9 -42 13 -75 l7 -61 -88 0 -87 0 32 37 c66 74
103 113 111 113 4 0 9 -6 12 -14z m15 -198 c-2 -12 -18 -33 -37 -45 -37 -25
-58 -24 -127 8 -22 10 -49 19 -59 19 -17 0 -17 1 0 20 16 18 31 20 122 20 102
0 104 0 101 -22z"/>
<path d="M1825 1128 c-24 -14 -55 -48 -55 -61 0 -5 12 -1 27 8 19 13 49 19 95
20 37 0 68 -2 68 -5 0 -3 -12 -16 -25 -29 -14 -13 -25 -32 -25 -42 0 -15 -7
-19 -38 -19 -21 0 -47 -7 -58 -15 -18 -13 -15 -14 28 -15 36 0 50 -5 58 -19
19 -36 12 -46 -32 -46 -22 0 -43 -5 -45 -12 -3 -7 3 -9 16 -6 20 5 51 -11 51
-27 0 -10 -74 -86 -91 -92 -8 -3 -11 -9 -7 -13 5 -5 19 -3 33 3 33 15 170 16
197 1 24 -13 60 2 96 41 23 24 24 24 38 5 8 -10 14 -21 14 -25 0 -3 9 -11 21
-18 18 -11 25 -9 62 18 38 29 39 31 14 24 -23 -5 -34 -2 -53 19 -13 14 -24 29
-24 32 0 7 -46 50 -79 74 l-24 18 23 21 c13 12 40 25 59 28 31 6 101 39 101
49 0 7 -62 65 -69 65 -3 0 -16 -7 -29 -15 l-21 -16 30 -27 31 -28 -43 -14
c-24 -7 -51 -20 -60 -27 -8 -7 -20 -13 -25 -13 -5 0 -18 -10 -29 -22 l-20 -23
-3 60 c-2 46 2 70 18 103 12 24 20 45 18 48 -3 2 -15 -17 -28 -44 -18 -34 -25
-67 -28 -122 -4 -108 -7 -116 -55 -143 -44 -26 -122 -49 -82 -25 24 14 40 26
71 55 21 19 24 31 24 88 0 47 7 83 25 127 14 34 23 63 22 65 -2 2 -18 -2 -35
-8 -23 -8 -41 -8 -63 0 -40 14 -68 14 -94 -1z m263 -248 c40 -25 50 -47 29
-67 -12 -12 -28 -14 -81 -8 l-67 7 31 34 c16 19 30 39 30 44 0 16 22 12 58
-10z"/>
<path d="M2103 1051 c-40 -22 -65 -42 -59 -48 4 -4 96 56 96 63 0 6 -1 5 -37
-15z"/>
</g>
</svg>
